<svg width="22" height="22" viewBox="0 0 22 22" fill="none" xmlns="http://www.w3.org/2000/svg">
<path d="M10.9997 1.83325C5.94518 1.83325 1.83301 5.94542 1.83301 10.9999C1.83301 16.0544 5.94518 20.1666 10.9997 20.1666C16.0542 20.1666 20.1663 16.0544 20.1663 10.9999C20.1663 5.94542 16.0542 1.83325 10.9997 1.83325ZM10.9997 18.3333C6.95626 18.3333 3.66634 15.0433 3.66634 10.9999C3.66634 6.9565 6.95626 3.66659 10.9997 3.66659C15.0431 3.66659 18.333 6.9565 18.333 10.9999C18.333 15.0433 15.0431 18.3333 10.9997 18.3333Z" fill="#808080"/>
<path d="M11.9163 6.41675H10.083V11.3796L13.1016 14.3982L14.3978 13.102L11.9163 10.6206V6.41675Z" fill="#808080"/>
</svg>
