<svg width="20" height="18" viewBox="0 0 20 18" fill="none" xmlns="http://www.w3.org/2000/svg">
<path d="M1.85 4.968V5.06107L1.93339 5.1024C2.65956 5.46229 3.27075 6.01788 3.69805 6.70654C4.12534 7.39521 4.35176 8.18954 4.35176 9C4.35176 9.81046 4.12534 10.6048 3.69805 11.2935C3.27075 11.9821 2.65956 12.5377 1.93339 12.8976L1.85 12.9389V13.032V16V16.15H2H18H18.15V16V13.032V12.9389L18.0666 12.8976C17.3404 12.5377 16.7293 11.9821 16.302 11.2935C15.8747 10.6048 15.6482 9.81046 15.6482 9C15.6482 8.18954 15.8747 7.39521 16.302 6.70654C16.7293 6.01788 17.3404 5.46229 18.0666 5.1024L18.15 5.06107V4.968V2V1.85H18H2H1.85V2V4.968ZM0.15 6.35424V1C0.15 0.774566 0.239553 0.558365 0.398959 0.398959C0.558365 0.239553 0.774566 0.15 1 0.15H19C19.2254 0.15 19.4416 0.239553 19.601 0.398959C19.7604 0.558365 19.85 0.774566 19.85 1V6.35424C19.2019 6.39096 18.5877 6.66467 18.1262 7.12617C17.6292 7.62314 17.35 8.29718 17.35 9C17.35 9.70282 17.6292 10.3769 18.1262 10.8738C18.5877 11.3353 19.2019 11.609 19.85 11.6458V17C19.85 17.2254 19.7604 17.4416 19.601 17.601C19.4416 17.7604 19.2254 17.85 19 17.85H1C0.774566 17.85 0.558365 17.7604 0.398959 17.601C0.239553 17.4416 0.15 17.2254 0.15 17V11.6458C0.798142 11.609 1.41233 11.3353 1.87383 10.8738C2.3708 10.3769 2.65 9.70282 2.65 9C2.65 8.29718 2.3708 7.62314 1.87383 7.12617C1.41233 6.66467 0.798142 6.39096 0.15 6.35424ZM7.15 6.15H12.85V7.85H7.15V6.15ZM7.15 10.15H12.85V11.85H7.15V10.15Z" fill="#252D6E" stroke="white" stroke-width="0.3"/>
</svg>
