<svg width="11" height="15" viewBox="0 0 11 15" fill="none" xmlns="http://www.w3.org/2000/svg">
<path d="M10.5801 4.32617L10.0918 6.13281H0.912109L1.41016 4.32617H10.5801ZM6.00977 15L1.19531 9.31641L1.18555 7.75391H3.50977C4.07617 7.75391 4.54167 7.64974 4.90625 7.44141C5.27734 7.22656 5.55404 6.93685 5.73633 6.57227C5.92513 6.20768 6.01953 5.79753 6.01953 5.3418C6.01953 4.86654 5.9349 4.44661 5.76562 4.08203C5.59635 3.71094 5.32617 3.42122 4.95508 3.21289C4.58398 3.00456 4.09245 2.90039 3.48047 2.90039H0.921875L1.47852 0.78125H3.48047C4.63932 0.78125 5.60286 0.957031 6.37109 1.30859C7.14583 1.65365 7.72526 2.1582 8.10938 2.82227C8.5 3.47982 8.69531 4.27409 8.69531 5.20508C8.69531 6.01888 8.55859 6.73828 8.28516 7.36328C8.01823 7.98177 7.58529 8.48633 6.98633 8.87695C6.38737 9.26758 5.59961 9.52799 4.62305 9.6582L8.98828 14.8633V15H6.00977ZM10.5898 0.78125L10.0918 2.58789H2.54297L3.04102 0.78125H10.5898Z" fill="#252D6E"/>
</svg>
