<svg width="20" height="26" viewBox="0 0 20 26" fill="none" xmlns="http://www.w3.org/2000/svg">
<path d="M1.42857 23.5625C1.42857 24.209 1.65434 24.829 2.0562 25.2861C2.45806 25.7432 3.00311 26 3.57143 26H16.4286C16.9969 26 17.5419 25.7432 17.9438 25.2861C18.3457 24.829 18.5714 24.209 18.5714 23.5625V6.50001H1.42857V23.5625ZM13.5714 10.5625C13.5714 10.347 13.6467 10.1404 13.7806 9.98798C13.9146 9.83561 14.0963 9.75001 14.2857 9.75001C14.4752 9.75001 14.6568 9.83561 14.7908 9.98798C14.9247 10.1404 15 10.347 15 10.5625V21.9375C15 22.153 14.9247 22.3597 14.7908 22.512C14.6568 22.6644 14.4752 22.75 14.2857 22.75C14.0963 22.75 13.9146 22.6644 13.7806 22.512C13.6467 22.3597 13.5714 22.153 13.5714 21.9375V10.5625ZM9.28571 10.5625C9.28571 10.347 9.36097 10.1404 9.49492 9.98798C9.62888 9.83561 9.81056 9.75001 10 9.75001C10.1894 9.75001 10.3711 9.83561 10.5051 9.98798C10.639 10.1404 10.7143 10.347 10.7143 10.5625V21.9375C10.7143 22.153 10.639 22.3597 10.5051 22.512C10.3711 22.6644 10.1894 22.75 10 22.75C9.81056 22.75 9.62888 22.6644 9.49492 22.512C9.36097 22.3597 9.28571 22.153 9.28571 21.9375V10.5625ZM5 10.5625C5 10.347 5.07525 10.1404 5.20921 9.98798C5.34316 9.83561 5.52485 9.75001 5.71429 9.75001C5.90373 9.75001 6.08541 9.83561 6.21936 9.98798C6.35332 10.1404 6.42857 10.347 6.42857 10.5625V21.9375C6.42857 22.153 6.35332 22.3597 6.21936 22.512C6.08541 22.6644 5.90373 22.75 5.71429 22.75C5.52485 22.75 5.34316 22.6644 5.20921 22.512C5.07525 22.3597 5 22.153 5 21.9375V10.5625ZM19.2857 1.62501H13.9286L13.5089 0.675399C13.42 0.472383 13.2831 0.30161 13.1135 0.182293C12.944 0.0629747 12.7485 -0.000153764 12.5491 8.90333e-06H7.44643C7.24749 -0.000861007 7.05236 0.0620321 6.8834 0.181483C6.71443 0.300933 6.57846 0.472109 6.49107 0.675399L6.07143 1.62501H0.714286C0.524845 1.62501 0.343164 1.71061 0.209209 1.86298C0.0752549 2.01536 0 2.22202 0 2.43751L0 4.06251C0 4.278 0.0752549 4.48466 0.209209 4.63703C0.343164 4.78941 0.524845 4.87501 0.714286 4.87501H19.2857C19.4752 4.87501 19.6568 4.78941 19.7908 4.63703C19.9247 4.48466 20 4.278 20 4.06251V2.43751C20 2.22202 19.9247 2.01536 19.7908 1.86298C19.6568 1.71061 19.4752 1.62501 19.2857 1.62501Z" fill="#FF5151" fill-opacity="0.7"/>
</svg>
