<svg width="18" height="20" viewBox="0 0 18 20" fill="none" xmlns="http://www.w3.org/2000/svg">
<path d="M15 14.0161C16.245 14.5451 17 15.2391 17 16.0001C17 17.6571 13.418 19.0001 9 19.0001C4.582 19.0001 1 17.6571 1 16.0001C1 15.2401 1.755 14.5441 3 14.0161" stroke="#252D6E" stroke-width="1.5" stroke-linecap="round" stroke-linejoin="round"/>
<path d="M14 6.444C14 9.537 9 15 9 15C9 15 4 9.537 4 6.444C4 3.352 6.239 1 9 1C11.761 1 14 3.352 14 6.444V6.444Z" stroke="#252D6E" stroke-width="1.5" stroke-linecap="round" stroke-linejoin="round"/>
<path d="M9 7C9.55228 7 10 6.55228 10 6C10 5.44772 9.55228 5 9 5C8.44772 5 8 5.44772 8 6C8 6.55228 8.44772 7 9 7Z" stroke="#252D6E" stroke-width="1.5" stroke-linecap="round" stroke-linejoin="round"/>
</svg>
