<svg width="40" height="40" viewBox="0 0 40 40" fill="none" xmlns="http://www.w3.org/2000/svg">
<path d="M20 13.3333V21.6666H28.3333V18.3333H23.3333V13.3333H20Z" fill="#252D6E"/>
<path d="M35.4863 14.1615C34.7345 12.3783 33.6432 10.7582 32.273 9.39155C30.1989 7.31749 27.5625 5.89672 24.6897 5.30488C22.6957 4.89902 20.6403 4.89902 18.6463 5.30488C15.7708 5.89294 13.1321 7.31487 11.0597 9.39322C9.69282 10.7614 8.60189 12.3796 7.84634 14.1599C7.06486 16.0076 6.66354 17.9937 6.66634 19.9999L6.66801 20.0415H3.33301L8.33301 26.6665L13.333 20.0415H10.0013L9.99967 19.9999C9.99488 17.6755 10.6888 15.4033 11.9913 13.4782C12.8315 12.236 13.9013 11.1657 15.143 10.3249C16.4062 9.47389 17.8232 8.87721 19.3147 8.56821C22.3456 7.94505 25.4999 8.55093 28.0842 10.2527C30.6685 11.9544 32.4713 14.6127 33.0963 17.6432C33.4107 19.1964 33.4107 20.7967 33.0963 22.3499C32.7914 23.8426 32.1944 25.2603 31.3397 26.5215C30.923 27.1399 30.4447 27.7215 29.9163 28.2482C28.8516 29.3116 27.5928 30.1609 26.208 30.7499C25.5027 31.048 24.7697 31.2758 24.0197 31.4299C22.4671 31.744 20.8673 31.744 19.3147 31.4299C17.8235 31.1242 16.4071 30.5278 15.1463 29.6749C14.5263 29.2559 13.9475 28.7787 13.418 28.2499L11.0613 30.6065C12.4532 32.0003 14.1064 33.1058 15.9262 33.8597C17.746 34.6136 19.6966 35.001 21.6663 34.9999C23.6714 34.9991 25.6562 34.5985 27.5047 33.8215C30.1841 32.6879 32.4764 30.8003 34.103 28.3882C35.7771 25.9114 36.67 22.9894 36.6663 19.9999C36.6705 17.9941 36.2691 16.0082 35.4863 14.1615Z" fill="#252D6E"/>
</svg>
