<svg width="33" height="34" viewBox="0 0 33 34" fill="none" xmlns="http://www.w3.org/2000/svg">
<path fill-rule="evenodd" clip-rule="evenodd" d="M0 17C0 8.2 7.7 0.5 16.5 0.5C25.3 0.5 33 8.2 33 17C33 25.8 25.3 33.5 16.5 33.5C7.7 33.5 0 25.8 0 17ZM2.7 17C2.7 24.6 8.9 30.8 16.5 30.8C24.1 30.8 30.3 24.6 30.3 17C30.3 9.4 24.1 3.2 16.5 3.2C8.9 3.2 2.7 9.4 2.7 17ZM15 10.5C16.4 10.5 17.44 11.32 18 12.5H10.5V15H18C17.76 16.7 16.76 17.5 15 17.5H11.5V19.5L18.23 26.5H22L15.5 19.5H16C18.87 19.5 20.75 17.8 21 15H23V12.5H20.29C20.2504 12.3604 20.2147 12.2229 20.1796 12.0878C20.0287 11.5069 19.8894 10.9706 19.5 10.5H23V8H10.5V10.5H15Z" fill="white"/>
</svg>
