<svg width="22" height="18" viewBox="0 0 22 18" fill="none" xmlns="http://www.w3.org/2000/svg">
<path d="M9.125 2H12.507C12.9743 2 13.3525 2.2013 13.3525 2.45C13.3525 2.6987 12.9743 2.9 12.507 2.9H9.125C8.65773 2.9 8.2795 2.6987 8.2795 2.45C8.2795 2.2013 8.65773 2 9.125 2Z" fill="#252D6E"/>
<path d="M6.51059 0H15.256C16.4614 0 17.4424 0.807609 17.4424 1.8V16.2C17.4424 17.1924 16.4614 18 15.256 18H6.51059C5.30519 18 4.32423 17.1924 4.32423 16.2V1.8C4.32423 0.807609 5.30519 0 6.51059 0ZM5.41741 16.2C5.41741 16.6971 5.90678 17.1 6.51059 17.1H15.256C15.8598 17.1 16.3492 16.6971 16.3492 16.2V1.8C16.3492 1.30289 15.8598 0.9 15.256 0.9H6.51059C5.90678 0.9 5.41741 1.30289 5.41741 1.8V16.2Z" fill="#252D6E"/>
<path d="M10.8834 15.4997C10.2796 15.4997 9.7902 15.0968 9.7902 14.5997C9.7902 14.1027 10.2796 13.6997 10.8834 13.6997C11.4871 13.6997 11.9766 14.1027 11.9766 14.5997C11.9766 15.0968 11.4871 15.4997 10.8834 15.4997Z" fill="#252D6E"/>
</svg>
