<svg width="34" height="34" viewBox="0 0 34 34" fill="none" xmlns="http://www.w3.org/2000/svg">
<path d="M27.4674 16.65H21.25C19.8879 16.65 18.775 17.7629 18.775 19.125C18.775 20.4871 19.8879 21.6 21.25 21.6H27.625C30.9446 21.6 33.65 24.3054 33.65 27.625C33.65 30.9446 30.9446 33.65 27.625 33.65H9.91467C10.7065 32.6651 11.6415 31.4277 12.5084 30.1H27.625C28.9871 30.1 30.1 28.9871 30.1 27.625C30.1 26.2629 28.9871 25.15 27.625 25.15H21.25C17.9304 25.15 15.225 22.4446 15.225 19.125C15.225 15.8054 17.9304 13.1 21.25 13.1H24.2582H24.9352L24.5438 12.5476C23.7819 11.4725 23.0408 10.3179 22.4914 9.22814C21.9368 8.12803 21.6 7.13649 21.6 6.375C21.6 3.04877 24.2988 0.35 27.625 0.35C30.9512 0.35 33.65 3.04877 33.65 6.375C33.65 7.16731 33.2852 8.20881 32.6927 9.35977C32.1061 10.4994 31.3201 11.7019 30.5283 12.803C29.7375 13.9028 28.9459 14.8944 28.3516 15.6114C28.0546 15.9698 27.8073 16.2591 27.6344 16.4586C27.5669 16.5366 27.5107 16.6008 27.4674 16.65ZM30.1 6.375C30.1 5.00631 28.9937 3.9 27.625 3.9C26.2563 3.9 25.15 5.00631 25.15 6.375C25.15 7.74369 26.2563 8.85 27.625 8.85C28.9937 8.85 30.1 7.74369 30.1 6.375ZM6.375 33.4695C6.37189 33.4659 6.36875 33.4623 6.36558 33.4586C6.19272 33.2591 5.94538 32.9698 5.64839 32.6114C5.05411 31.8944 4.26251 30.9028 3.47166 29.803C2.6799 28.7019 1.89391 27.4994 1.30729 26.3598C0.714833 25.2088 0.35 24.1673 0.35 23.375C0.35 20.0488 3.04877 17.35 6.375 17.35C9.70123 17.35 12.4 20.0488 12.4 23.375C12.4 24.1673 12.0352 25.2088 11.4427 26.3598C10.8561 27.4994 10.0701 28.7019 9.27834 29.803C8.48749 30.9028 7.69589 31.8944 7.10161 32.6114C6.80462 32.9698 6.55728 33.2591 6.38442 33.4586C6.38125 33.4623 6.37811 33.4659 6.375 33.4695ZM3.9 23.375C3.9 24.7437 5.00631 25.85 6.375 25.85C7.74369 25.85 8.85 24.7437 8.85 23.375C8.85 22.0063 7.74369 20.9 6.375 20.9C5.00631 20.9 3.9 22.0063 3.9 23.375Z" fill="white" stroke="white" stroke-width="0.7"/>
</svg>
