<svg width="24" height="24" viewBox="0 0 24 24" fill="none" xmlns="http://www.w3.org/2000/svg">
<path fill-rule="evenodd" clip-rule="evenodd" d="M9.67998 0C4.33445 0 0 4.33094 0 9.6747C0 15.0185 4.33445 19.3494 9.67998 19.3494C15.0255 19.3494 19.36 15.0185 19.36 9.6747C19.36 7.10861 18.34 4.64775 16.5245 2.83344C14.7092 1.01915 12.2471 0 9.67998 0ZM2 9.6747C2 5.43665 5.43787 2 9.67998 2C11.717 2 13.6705 2.80873 15.1108 4.24808C16.551 5.68741 17.36 7.63944 17.36 9.6747C17.36 13.9127 13.9221 17.3494 9.67998 17.3494C5.43787 17.3494 2 13.9127 2 9.6747ZM19.3653 17.9542C18.9747 17.5637 18.3415 17.5639 17.9511 17.9545C17.5607 18.3452 17.5609 18.9783 17.9515 19.3688L22.2919 23.7069C22.6826 24.0973 23.3157 24.0971 23.7061 23.7065C24.0966 23.3159 24.0964 22.6827 23.7058 22.2923L19.3653 17.9542Z" fill="#252D6E"/>
</svg>
