<svg width="26" height="22" viewBox="0 0 26 22" fill="none" xmlns="http://www.w3.org/2000/svg">
<path d="M25.25 4H21.6625C21.225 1.9875 19.475 0.5 17.375 0.5C15.275 0.5 13.525 1.9875 13.0875 4H0.75V5.75H13.0875C13.525 7.7625 15.275 9.25 17.375 9.25C19.475 9.25 21.225 7.7625 21.6625 5.75H25.25V4ZM17.375 7.5C15.8875 7.5 14.75 6.3625 14.75 4.875C14.75 3.3875 15.8875 2.25 17.375 2.25C18.8625 2.25 20 3.3875 20 4.875C20 6.3625 18.8625 7.5 17.375 7.5ZM0.75 18H4.3375C4.775 20.0125 6.525 21.5 8.625 21.5C10.725 21.5 12.475 20.0125 12.9125 18H25.25V16.25H12.9125C12.475 14.2375 10.725 12.75 8.625 12.75C6.525 12.75 4.775 14.2375 4.3375 16.25H0.75V18ZM8.625 14.5C10.1125 14.5 11.25 15.6375 11.25 17.125C11.25 18.6125 10.1125 19.75 8.625 19.75C7.1375 19.75 6 18.6125 6 17.125C6 15.6375 7.1375 14.5 8.625 14.5Z" fill="#252D6E"/>
</svg>
